<svg id="Layer_1" data-name="Layer 1" xmlns="http://www.w3.org/2000/svg" viewBox="0 0 24.98 19.45"><defs><style>.cls-1{fill:#fff;}</style></defs><title>3d-preview</title><path class="cls-1" d="M19.61,18.51V13h2.51A2.6,2.6,0,0,1,25,15.77a2.6,2.6,0,0,1-2.86,2.74ZM21,17.45h1a1.48,1.48,0,0,0,1.52-1.68A1.47,1.47,0,0,0,22,14.1H21Z"/><path class="cls-1" d="M15.7,18.66a5.25,5.25,0,0,1-1.83-.33V17.24a4.31,4.31,0,0,0,1.55.29c.86,0,1.37-.28,1.37-.74s-.78-.6-1.16-.6h-.57v-.93h.49c.73,0,1.1-.2,1.1-.61s-.4-.63-1.18-.63a3.87,3.87,0,0,0-1.53.3V13.2a5.35,5.35,0,0,1,1.8-.31c1.14,0,2.36.36,2.36,1.37a1.28,1.28,0,0,1-.82,1.15l-.55.24.58.14A1.14,1.14,0,0,1,18.24,17C18.24,18,17.22,18.66,15.7,18.66Z"/><path class="cls-1" d="M8.94,19.45a1.2,1.2,0,0,1-.53-.14L.62,15.42a1,1,0,0,1-.62-1Q0,9.72,0,5A1,1,0,0,1,.62,4L8.46.12a1,1,0,0,1,1,0L17.3,4.06a1,1,0,0,1,.58.94c0,1.09,0,2.17,0,3.25v3.27h-1.8V6.37L9.84,9.48v7.63l2.54-1.34v2L9.47,19.31A1.17,1.17,0,0,1,8.94,19.45ZM1.81,14,8,17.1V9.48L1.81,6.37ZM2.92,4.91l5.95,3,.09,0L12.18,6.3,15,4.91l-6-3Z"/></svg>